<?xml version="1.0" encoding="utf-8" standalone="no"?>
<!DOCTYPE svg PUBLIC "-//W3C//DTD SVG 1.1//EN"
  "http://www.w3.org/Graphics/SVG/1.1/DTD/svg11.dtd">
<svg xmlns:xlink="http://www.w3.org/1999/xlink" width="690.2525pt" height="339.78375pt" viewBox="0 0 690.2525 339.78375" xmlns="http://www.w3.org/2000/svg" version="1.1">
 <metadata>
  <rdf:RDF xmlns:dc="http://purl.org/dc/elements/1.1/" xmlns:cc="http://creativecommons.org/ns#" xmlns:rdf="http://www.w3.org/1999/02/22-rdf-syntax-ns#">
   <cc:Work>
    <dc:type rdf:resource="http://purl.org/dc/dcmitype/StillImage"/>
    <dc:date>2022-06-08T12:40:26.327637</dc:date>
    <dc:format>image/svg+xml</dc:format>
    <dc:creator>
     <cc:Agent>
      <dc:title>Matplotlib v3.5.1, https://matplotlib.org/</dc:title>
     </cc:Agent>
    </dc:creator>
   </cc:Work>
  </rdf:RDF>
 </metadata>
 <defs>
  <style type="text/css">*{stroke-linejoin: round; stroke-linecap: butt}</style>
 </defs>
 <g id="figure_1">
  <g id="patch_1">
   <path d="M 0 339.78375 
L 690.2525 339.78375 
L 690.2525 0 
L 0 0 
z
" style="fill: #ffffff"/>
  </g>
  <g id="axes_1">
   <g id="patch_2">
    <path d="M 85.95875 279 
L 364.95875 279 
L 364.95875 7.2 
L 85.95875 7.2 
z
" style="fill: #ffffff"/>
   </g>
   <g id="matplotlib.axis_1">
    <g id="xtick_1">
     <g id="line2d_1">
      <defs>
       <path id="m1d3f29481f" d="M 0 0 
L 0 3.5 
" style="stroke: #000000; stroke-width: 0.8"/>
      </defs>
      <g>
       <use xlink:href="#m1d3f29481f" x="98.415514" y="279" style="stroke: #000000; stroke-width: 0.8"/>
      </g>
     </g>
     <g id="text_1">
      <!-- 0.0 -->
      <g transform="translate(82.512389 301.196875)scale(0.2 -0.2)">
       <defs>
        <path id="DejaVuSans-30" d="M 2034 4250 
Q 1547 4250 1301 3770 
Q 1056 3291 1056 2328 
Q 1056 1369 1301 889 
Q 1547 409 2034 409 
Q 2525 409 2770 889 
Q 3016 1369 3016 2328 
Q 3016 3291 2770 3770 
Q 2525 4250 2034 4250 
z
M 2034 4750 
Q 2819 4750 3233 4129 
Q 3647 3509 3647 2328 
Q 3647 1150 3233 529 
Q 2819 -91 2034 -91 
Q 1250 -91 836 529 
Q 422 1150 422 2328 
Q 422 3509 836 4129 
Q 1250 4750 2034 4750 
z
" transform="scale(0.015625)"/>
        <path id="DejaVuSans-2e" d="M 684 794 
L 1344 794 
L 1344 0 
L 684 0 
L 684 794 
z
" transform="scale(0.015625)"/>
       </defs>
       <use xlink:href="#DejaVuSans-30"/>
       <use xlink:href="#DejaVuSans-2e" x="63.623047"/>
       <use xlink:href="#DejaVuSans-30" x="95.410156"/>
      </g>
     </g>
    </g>
    <g id="xtick_2">
     <g id="line2d_2">
      <g>
       <use xlink:href="#m1d3f29481f" x="158.144964" y="279" style="stroke: #000000; stroke-width: 0.8"/>
      </g>
     </g>
     <g id="text_2">
      <!-- 0.2 -->
      <g transform="translate(142.241839 301.196875)scale(0.2 -0.2)">
       <defs>
        <path id="DejaVuSans-32" d="M 1228 531 
L 3431 531 
L 3431 0 
L 469 0 
L 469 531 
Q 828 903 1448 1529 
Q 2069 2156 2228 2338 
Q 2531 2678 2651 2914 
Q 2772 3150 2772 3378 
Q 2772 3750 2511 3984 
Q 2250 4219 1831 4219 
Q 1534 4219 1204 4116 
Q 875 4013 500 3803 
L 500 4441 
Q 881 4594 1212 4672 
Q 1544 4750 1819 4750 
Q 2544 4750 2975 4387 
Q 3406 4025 3406 3419 
Q 3406 3131 3298 2873 
Q 3191 2616 2906 2266 
Q 2828 2175 2409 1742 
Q 1991 1309 1228 531 
z
" transform="scale(0.015625)"/>
       </defs>
       <use xlink:href="#DejaVuSans-30"/>
       <use xlink:href="#DejaVuSans-2e" x="63.623047"/>
       <use xlink:href="#DejaVuSans-32" x="95.410156"/>
      </g>
     </g>
    </g>
    <g id="xtick_3">
     <g id="line2d_3">
      <g>
       <use xlink:href="#m1d3f29481f" x="217.874415" y="279" style="stroke: #000000; stroke-width: 0.8"/>
      </g>
     </g>
     <g id="text_3">
      <!-- 0.4 -->
      <g transform="translate(201.97129 301.196875)scale(0.2 -0.2)">
       <defs>
        <path id="DejaVuSans-34" d="M 2419 4116 
L 825 1625 
L 2419 1625 
L 2419 4116 
z
M 2253 4666 
L 3047 4666 
L 3047 1625 
L 3713 1625 
L 3713 1100 
L 3047 1100 
L 3047 0 
L 2419 0 
L 2419 1100 
L 313 1100 
L 313 1709 
L 2253 4666 
z
" transform="scale(0.015625)"/>
       </defs>
       <use xlink:href="#DejaVuSans-30"/>
       <use xlink:href="#DejaVuSans-2e" x="63.623047"/>
       <use xlink:href="#DejaVuSans-34" x="95.410156"/>
      </g>
     </g>
    </g>
    <g id="xtick_4">
     <g id="line2d_4">
      <g>
       <use xlink:href="#m1d3f29481f" x="277.603866" y="279" style="stroke: #000000; stroke-width: 0.8"/>
      </g>
     </g>
     <g id="text_4">
      <!-- 0.6 -->
      <g transform="translate(261.700741 301.196875)scale(0.2 -0.2)">
       <defs>
        <path id="DejaVuSans-36" d="M 2113 2584 
Q 1688 2584 1439 2293 
Q 1191 2003 1191 1497 
Q 1191 994 1439 701 
Q 1688 409 2113 409 
Q 2538 409 2786 701 
Q 3034 994 3034 1497 
Q 3034 2003 2786 2293 
Q 2538 2584 2113 2584 
z
M 3366 4563 
L 3366 3988 
Q 3128 4100 2886 4159 
Q 2644 4219 2406 4219 
Q 1781 4219 1451 3797 
Q 1122 3375 1075 2522 
Q 1259 2794 1537 2939 
Q 1816 3084 2150 3084 
Q 2853 3084 3261 2657 
Q 3669 2231 3669 1497 
Q 3669 778 3244 343 
Q 2819 -91 2113 -91 
Q 1303 -91 875 529 
Q 447 1150 447 2328 
Q 447 3434 972 4092 
Q 1497 4750 2381 4750 
Q 2619 4750 2861 4703 
Q 3103 4656 3366 4563 
z
" transform="scale(0.015625)"/>
       </defs>
       <use xlink:href="#DejaVuSans-30"/>
       <use xlink:href="#DejaVuSans-2e" x="63.623047"/>
       <use xlink:href="#DejaVuSans-36" x="95.410156"/>
      </g>
     </g>
    </g>
    <g id="xtick_5">
     <g id="line2d_5">
      <g>
       <use xlink:href="#m1d3f29481f" x="337.333316" y="279" style="stroke: #000000; stroke-width: 0.8"/>
      </g>
     </g>
     <g id="text_5">
      <!-- 0.8 -->
      <g transform="translate(321.430191 301.196875)scale(0.2 -0.2)">
       <defs>
        <path id="DejaVuSans-38" d="M 2034 2216 
Q 1584 2216 1326 1975 
Q 1069 1734 1069 1313 
Q 1069 891 1326 650 
Q 1584 409 2034 409 
Q 2484 409 2743 651 
Q 3003 894 3003 1313 
Q 3003 1734 2745 1975 
Q 2488 2216 2034 2216 
z
M 1403 2484 
Q 997 2584 770 2862 
Q 544 3141 544 3541 
Q 544 4100 942 4425 
Q 1341 4750 2034 4750 
Q 2731 4750 3128 4425 
Q 3525 4100 3525 3541 
Q 3525 3141 3298 2862 
Q 3072 2584 2669 2484 
Q 3125 2378 3379 2068 
Q 3634 1759 3634 1313 
Q 3634 634 3220 271 
Q 2806 -91 2034 -91 
Q 1263 -91 848 271 
Q 434 634 434 1313 
Q 434 1759 690 2068 
Q 947 2378 1403 2484 
z
M 1172 3481 
Q 1172 3119 1398 2916 
Q 1625 2713 2034 2713 
Q 2441 2713 2670 2916 
Q 2900 3119 2900 3481 
Q 2900 3844 2670 4047 
Q 2441 4250 2034 4250 
Q 1625 4250 1398 4047 
Q 1172 3844 1172 3481 
z
" transform="scale(0.015625)"/>
       </defs>
       <use xlink:href="#DejaVuSans-30"/>
       <use xlink:href="#DejaVuSans-2e" x="63.623047"/>
       <use xlink:href="#DejaVuSans-38" x="95.410156"/>
      </g>
     </g>
    </g>
    <g id="text_6">
     <!-- Proportion of Scored PSMs -->
     <g transform="translate(67.8575 327.5925)scale(0.24 -0.24)">
      <defs>
       <path id="DejaVuSans-50" d="M 1259 4147 
L 1259 2394 
L 2053 2394 
Q 2494 2394 2734 2622 
Q 2975 2850 2975 3272 
Q 2975 3691 2734 3919 
Q 2494 4147 2053 4147 
L 1259 4147 
z
M 628 4666 
L 2053 4666 
Q 2838 4666 3239 4311 
Q 3641 3956 3641 3272 
Q 3641 2581 3239 2228 
Q 2838 1875 2053 1875 
L 1259 1875 
L 1259 0 
L 628 0 
L 628 4666 
z
" transform="scale(0.015625)"/>
       <path id="DejaVuSans-72" d="M 2631 2963 
Q 2534 3019 2420 3045 
Q 2306 3072 2169 3072 
Q 1681 3072 1420 2755 
Q 1159 2438 1159 1844 
L 1159 0 
L 581 0 
L 581 3500 
L 1159 3500 
L 1159 2956 
Q 1341 3275 1631 3429 
Q 1922 3584 2338 3584 
Q 2397 3584 2469 3576 
Q 2541 3569 2628 3553 
L 2631 2963 
z
" transform="scale(0.015625)"/>
       <path id="DejaVuSans-6f" d="M 1959 3097 
Q 1497 3097 1228 2736 
Q 959 2375 959 1747 
Q 959 1119 1226 758 
Q 1494 397 1959 397 
Q 2419 397 2687 759 
Q 2956 1122 2956 1747 
Q 2956 2369 2687 2733 
Q 2419 3097 1959 3097 
z
M 1959 3584 
Q 2709 3584 3137 3096 
Q 3566 2609 3566 1747 
Q 3566 888 3137 398 
Q 2709 -91 1959 -91 
Q 1206 -91 779 398 
Q 353 888 353 1747 
Q 353 2609 779 3096 
Q 1206 3584 1959 3584 
z
" transform="scale(0.015625)"/>
       <path id="DejaVuSans-70" d="M 1159 525 
L 1159 -1331 
L 581 -1331 
L 581 3500 
L 1159 3500 
L 1159 2969 
Q 1341 3281 1617 3432 
Q 1894 3584 2278 3584 
Q 2916 3584 3314 3078 
Q 3713 2572 3713 1747 
Q 3713 922 3314 415 
Q 2916 -91 2278 -91 
Q 1894 -91 1617 61 
Q 1341 213 1159 525 
z
M 3116 1747 
Q 3116 2381 2855 2742 
Q 2594 3103 2138 3103 
Q 1681 3103 1420 2742 
Q 1159 2381 1159 1747 
Q 1159 1113 1420 752 
Q 1681 391 2138 391 
Q 2594 391 2855 752 
Q 3116 1113 3116 1747 
z
" transform="scale(0.015625)"/>
       <path id="DejaVuSans-74" d="M 1172 4494 
L 1172 3500 
L 2356 3500 
L 2356 3053 
L 1172 3053 
L 1172 1153 
Q 1172 725 1289 603 
Q 1406 481 1766 481 
L 2356 481 
L 2356 0 
L 1766 0 
Q 1100 0 847 248 
Q 594 497 594 1153 
L 594 3053 
L 172 3053 
L 172 3500 
L 594 3500 
L 594 4494 
L 1172 4494 
z
" transform="scale(0.015625)"/>
       <path id="DejaVuSans-69" d="M 603 3500 
L 1178 3500 
L 1178 0 
L 603 0 
L 603 3500 
z
M 603 4863 
L 1178 4863 
L 1178 4134 
L 603 4134 
L 603 4863 
z
" transform="scale(0.015625)"/>
       <path id="DejaVuSans-6e" d="M 3513 2113 
L 3513 0 
L 2938 0 
L 2938 2094 
Q 2938 2591 2744 2837 
Q 2550 3084 2163 3084 
Q 1697 3084 1428 2787 
Q 1159 2491 1159 1978 
L 1159 0 
L 581 0 
L 581 3500 
L 1159 3500 
L 1159 2956 
Q 1366 3272 1645 3428 
Q 1925 3584 2291 3584 
Q 2894 3584 3203 3211 
Q 3513 2838 3513 2113 
z
" transform="scale(0.015625)"/>
       <path id="DejaVuSans-20" transform="scale(0.015625)"/>
       <path id="DejaVuSans-66" d="M 2375 4863 
L 2375 4384 
L 1825 4384 
Q 1516 4384 1395 4259 
Q 1275 4134 1275 3809 
L 1275 3500 
L 2222 3500 
L 2222 3053 
L 1275 3053 
L 1275 0 
L 697 0 
L 697 3053 
L 147 3053 
L 147 3500 
L 697 3500 
L 697 3744 
Q 697 4328 969 4595 
Q 1241 4863 1831 4863 
L 2375 4863 
z
" transform="scale(0.015625)"/>
       <path id="DejaVuSans-53" d="M 3425 4513 
L 3425 3897 
Q 3066 4069 2747 4153 
Q 2428 4238 2131 4238 
Q 1616 4238 1336 4038 
Q 1056 3838 1056 3469 
Q 1056 3159 1242 3001 
Q 1428 2844 1947 2747 
L 2328 2669 
Q 3034 2534 3370 2195 
Q 3706 1856 3706 1288 
Q 3706 609 3251 259 
Q 2797 -91 1919 -91 
Q 1588 -91 1214 -16 
Q 841 59 441 206 
L 441 856 
Q 825 641 1194 531 
Q 1563 422 1919 422 
Q 2459 422 2753 634 
Q 3047 847 3047 1241 
Q 3047 1584 2836 1778 
Q 2625 1972 2144 2069 
L 1759 2144 
Q 1053 2284 737 2584 
Q 422 2884 422 3419 
Q 422 4038 858 4394 
Q 1294 4750 2059 4750 
Q 2388 4750 2728 4690 
Q 3069 4631 3425 4513 
z
" transform="scale(0.015625)"/>
       <path id="DejaVuSans-63" d="M 3122 3366 
L 3122 2828 
Q 2878 2963 2633 3030 
Q 2388 3097 2138 3097 
Q 1578 3097 1268 2742 
Q 959 2388 959 1747 
Q 959 1106 1268 751 
Q 1578 397 2138 397 
Q 2388 397 2633 464 
Q 2878 531 3122 666 
L 3122 134 
Q 2881 22 2623 -34 
Q 2366 -91 2075 -91 
Q 1284 -91 818 406 
Q 353 903 353 1747 
Q 353 2603 823 3093 
Q 1294 3584 2113 3584 
Q 2378 3584 2631 3529 
Q 2884 3475 3122 3366 
z
" transform="scale(0.015625)"/>
       <path id="DejaVuSans-65" d="M 3597 1894 
L 3597 1613 
L 953 1613 
Q 991 1019 1311 708 
Q 1631 397 2203 397 
Q 2534 397 2845 478 
Q 3156 559 3463 722 
L 3463 178 
Q 3153 47 2828 -22 
Q 2503 -91 2169 -91 
Q 1331 -91 842 396 
Q 353 884 353 1716 
Q 353 2575 817 3079 
Q 1281 3584 2069 3584 
Q 2775 3584 3186 3129 
Q 3597 2675 3597 1894 
z
M 3022 2063 
Q 3016 2534 2758 2815 
Q 2500 3097 2075 3097 
Q 1594 3097 1305 2825 
Q 1016 2553 972 2059 
L 3022 2063 
z
" transform="scale(0.015625)"/>
       <path id="DejaVuSans-64" d="M 2906 2969 
L 2906 4863 
L 3481 4863 
L 3481 0 
L 2906 0 
L 2906 525 
Q 2725 213 2448 61 
Q 2172 -91 1784 -91 
Q 1150 -91 751 415 
Q 353 922 353 1747 
Q 353 2572 751 3078 
Q 1150 3584 1784 3584 
Q 2172 3584 2448 3432 
Q 2725 3281 2906 2969 
z
M 947 1747 
Q 947 1113 1208 752 
Q 1469 391 1925 391 
Q 2381 391 2643 752 
Q 2906 1113 2906 1747 
Q 2906 2381 2643 2742 
Q 2381 3103 1925 3103 
Q 1469 3103 1208 2742 
Q 947 2381 947 1747 
z
" transform="scale(0.015625)"/>
       <path id="DejaVuSans-4d" d="M 628 4666 
L 1569 4666 
L 2759 1491 
L 3956 4666 
L 4897 4666 
L 4897 0 
L 4281 0 
L 4281 4097 
L 3078 897 
L 2444 897 
L 1241 4097 
L 1241 0 
L 628 0 
L 628 4666 
z
" transform="scale(0.015625)"/>
       <path id="DejaVuSans-73" d="M 2834 3397 
L 2834 2853 
Q 2591 2978 2328 3040 
Q 2066 3103 1784 3103 
Q 1356 3103 1142 2972 
Q 928 2841 928 2578 
Q 928 2378 1081 2264 
Q 1234 2150 1697 2047 
L 1894 2003 
Q 2506 1872 2764 1633 
Q 3022 1394 3022 966 
Q 3022 478 2636 193 
Q 2250 -91 1575 -91 
Q 1294 -91 989 -36 
Q 684 19 347 128 
L 347 722 
Q 666 556 975 473 
Q 1284 391 1588 391 
Q 1994 391 2212 530 
Q 2431 669 2431 922 
Q 2431 1156 2273 1281 
Q 2116 1406 1581 1522 
L 1381 1569 
Q 847 1681 609 1914 
Q 372 2147 372 2553 
Q 372 3047 722 3315 
Q 1072 3584 1716 3584 
Q 2034 3584 2315 3537 
Q 2597 3491 2834 3397 
z
" transform="scale(0.015625)"/>
      </defs>
      <use xlink:href="#DejaVuSans-50"/>
      <use xlink:href="#DejaVuSans-72" x="58.552734"/>
      <use xlink:href="#DejaVuSans-6f" x="97.416016"/>
      <use xlink:href="#DejaVuSans-70" x="158.597656"/>
      <use xlink:href="#DejaVuSans-6f" x="222.074219"/>
      <use xlink:href="#DejaVuSans-72" x="283.255859"/>
      <use xlink:href="#DejaVuSans-74" x="324.369141"/>
      <use xlink:href="#DejaVuSans-69" x="363.578125"/>
      <use xlink:href="#DejaVuSans-6f" x="391.361328"/>
      <use xlink:href="#DejaVuSans-6e" x="452.542969"/>
      <use xlink:href="#DejaVuSans-20" x="515.921875"/>
      <use xlink:href="#DejaVuSans-6f" x="547.708984"/>
      <use xlink:href="#DejaVuSans-66" x="608.890625"/>
      <use xlink:href="#DejaVuSans-20" x="644.095703"/>
      <use xlink:href="#DejaVuSans-53" x="675.882812"/>
      <use xlink:href="#DejaVuSans-63" x="739.359375"/>
      <use xlink:href="#DejaVuSans-6f" x="794.339844"/>
      <use xlink:href="#DejaVuSans-72" x="855.521484"/>
      <use xlink:href="#DejaVuSans-65" x="894.384766"/>
      <use xlink:href="#DejaVuSans-64" x="955.908203"/>
      <use xlink:href="#DejaVuSans-20" x="1019.384766"/>
      <use xlink:href="#DejaVuSans-50" x="1051.171875"/>
      <use xlink:href="#DejaVuSans-53" x="1111.474609"/>
      <use xlink:href="#DejaVuSans-4d" x="1174.951172"/>
      <use xlink:href="#DejaVuSans-73" x="1261.230469"/>
     </g>
    </g>
   </g>
   <g id="matplotlib.axis_2">
    <g id="ytick_1">
     <g id="line2d_6">
      <defs>
       <path id="mb1eb1e5c01" d="M 0 0 
L -3.5 0 
" style="stroke: #000000; stroke-width: 0.8"/>
      </defs>
      <g>
       <use xlink:href="#mb1eb1e5c01" x="85.95875" y="266.645455" style="stroke: #000000; stroke-width: 0.8"/>
      </g>
     </g>
     <g id="text_7">
      <!-- 0.00 -->
      <g transform="translate(34.4275 274.243892)scale(0.2 -0.2)">
       <use xlink:href="#DejaVuSans-30"/>
       <use xlink:href="#DejaVuSans-2e" x="63.623047"/>
       <use xlink:href="#DejaVuSans-30" x="95.410156"/>
       <use xlink:href="#DejaVuSans-30" x="159.033203"/>
      </g>
     </g>
    </g>
    <g id="ytick_2">
     <g id="line2d_7">
      <g>
       <use xlink:href="#mb1eb1e5c01" x="85.95875" y="216.947547" style="stroke: #000000; stroke-width: 0.8"/>
      </g>
     </g>
     <g id="text_8">
      <!-- 0.01 -->
      <g transform="translate(34.4275 224.545985)scale(0.2 -0.2)">
       <defs>
        <path id="DejaVuSans-31" d="M 794 531 
L 1825 531 
L 1825 4091 
L 703 3866 
L 703 4441 
L 1819 4666 
L 2450 4666 
L 2450 531 
L 3481 531 
L 3481 0 
L 794 0 
L 794 531 
z
" transform="scale(0.015625)"/>
       </defs>
       <use xlink:href="#DejaVuSans-30"/>
       <use xlink:href="#DejaVuSans-2e" x="63.623047"/>
       <use xlink:href="#DejaVuSans-30" x="95.410156"/>
       <use xlink:href="#DejaVuSans-31" x="159.033203"/>
      </g>
     </g>
    </g>
    <g id="ytick_3">
     <g id="line2d_8">
      <g>
       <use xlink:href="#mb1eb1e5c01" x="85.95875" y="167.24964" style="stroke: #000000; stroke-width: 0.8"/>
      </g>
     </g>
     <g id="text_9">
      <!-- 0.02 -->
      <g transform="translate(34.4275 174.848077)scale(0.2 -0.2)">
       <use xlink:href="#DejaVuSans-30"/>
       <use xlink:href="#DejaVuSans-2e" x="63.623047"/>
       <use xlink:href="#DejaVuSans-30" x="95.410156"/>
       <use xlink:href="#DejaVuSans-32" x="159.033203"/>
      </g>
     </g>
    </g>
    <g id="ytick_4">
     <g id="line2d_9">
      <g>
       <use xlink:href="#mb1eb1e5c01" x="85.95875" y="117.551732" style="stroke: #000000; stroke-width: 0.8"/>
      </g>
     </g>
     <g id="text_10">
      <!-- 0.03 -->
      <g transform="translate(34.4275 125.15017)scale(0.2 -0.2)">
       <defs>
        <path id="DejaVuSans-33" d="M 2597 2516 
Q 3050 2419 3304 2112 
Q 3559 1806 3559 1356 
Q 3559 666 3084 287 
Q 2609 -91 1734 -91 
Q 1441 -91 1130 -33 
Q 819 25 488 141 
L 488 750 
Q 750 597 1062 519 
Q 1375 441 1716 441 
Q 2309 441 2620 675 
Q 2931 909 2931 1356 
Q 2931 1769 2642 2001 
Q 2353 2234 1838 2234 
L 1294 2234 
L 1294 2753 
L 1863 2753 
Q 2328 2753 2575 2939 
Q 2822 3125 2822 3475 
Q 2822 3834 2567 4026 
Q 2313 4219 1838 4219 
Q 1578 4219 1281 4162 
Q 984 4106 628 3988 
L 628 4550 
Q 988 4650 1302 4700 
Q 1616 4750 1894 4750 
Q 2613 4750 3031 4423 
Q 3450 4097 3450 3541 
Q 3450 3153 3228 2886 
Q 3006 2619 2597 2516 
z
" transform="scale(0.015625)"/>
       </defs>
       <use xlink:href="#DejaVuSans-30"/>
       <use xlink:href="#DejaVuSans-2e" x="63.623047"/>
       <use xlink:href="#DejaVuSans-30" x="95.410156"/>
       <use xlink:href="#DejaVuSans-33" x="159.033203"/>
      </g>
     </g>
    </g>
    <g id="ytick_5">
     <g id="line2d_10">
      <g>
       <use xlink:href="#mb1eb1e5c01" x="85.95875" y="67.853825" style="stroke: #000000; stroke-width: 0.8"/>
      </g>
     </g>
     <g id="text_11">
      <!-- 0.04 -->
      <g transform="translate(34.4275 75.452263)scale(0.2 -0.2)">
       <use xlink:href="#DejaVuSans-30"/>
       <use xlink:href="#DejaVuSans-2e" x="63.623047"/>
       <use xlink:href="#DejaVuSans-30" x="95.410156"/>
       <use xlink:href="#DejaVuSans-34" x="159.033203"/>
      </g>
     </g>
    </g>
    <g id="ytick_6">
     <g id="line2d_11">
      <g>
       <use xlink:href="#mb1eb1e5c01" x="85.95875" y="18.155918" style="stroke: #000000; stroke-width: 0.8"/>
      </g>
     </g>
     <g id="text_12">
      <!-- 0.05 -->
      <g transform="translate(34.4275 25.754355)scale(0.2 -0.2)">
       <defs>
        <path id="DejaVuSans-35" d="M 691 4666 
L 3169 4666 
L 3169 4134 
L 1269 4134 
L 1269 2991 
Q 1406 3038 1543 3061 
Q 1681 3084 1819 3084 
Q 2600 3084 3056 2656 
Q 3513 2228 3513 1497 
Q 3513 744 3044 326 
Q 2575 -91 1722 -91 
Q 1428 -91 1123 -41 
Q 819 9 494 109 
L 494 744 
Q 775 591 1075 516 
Q 1375 441 1709 441 
Q 2250 441 2565 725 
Q 2881 1009 2881 1497 
Q 2881 1984 2565 2268 
Q 2250 2553 1709 2553 
Q 1456 2553 1204 2497 
Q 953 2441 691 2322 
L 691 4666 
z
" transform="scale(0.015625)"/>
       </defs>
       <use xlink:href="#DejaVuSans-30"/>
       <use xlink:href="#DejaVuSans-2e" x="63.623047"/>
       <use xlink:href="#DejaVuSans-30" x="95.410156"/>
       <use xlink:href="#DejaVuSans-35" x="159.033203"/>
      </g>
     </g>
    </g>
    <g id="text_13">
     <!-- False localization rate -->
     <g transform="translate(25.43625 273.165)rotate(-90)scale(0.24 -0.24)">
      <defs>
       <path id="DejaVuSans-46" d="M 628 4666 
L 3309 4666 
L 3309 4134 
L 1259 4134 
L 1259 2759 
L 3109 2759 
L 3109 2228 
L 1259 2228 
L 1259 0 
L 628 0 
L 628 4666 
z
" transform="scale(0.015625)"/>
       <path id="DejaVuSans-61" d="M 2194 1759 
Q 1497 1759 1228 1600 
Q 959 1441 959 1056 
Q 959 750 1161 570 
Q 1363 391 1709 391 
Q 2188 391 2477 730 
Q 2766 1069 2766 1631 
L 2766 1759 
L 2194 1759 
z
M 3341 1997 
L 3341 0 
L 2766 0 
L 2766 531 
Q 2569 213 2275 61 
Q 1981 -91 1556 -91 
Q 1019 -91 701 211 
Q 384 513 384 1019 
Q 384 1609 779 1909 
Q 1175 2209 1959 2209 
L 2766 2209 
L 2766 2266 
Q 2766 2663 2505 2880 
Q 2244 3097 1772 3097 
Q 1472 3097 1187 3025 
Q 903 2953 641 2809 
L 641 3341 
Q 956 3463 1253 3523 
Q 1550 3584 1831 3584 
Q 2591 3584 2966 3190 
Q 3341 2797 3341 1997 
z
" transform="scale(0.015625)"/>
       <path id="DejaVuSans-6c" d="M 603 4863 
L 1178 4863 
L 1178 0 
L 603 0 
L 603 4863 
z
" transform="scale(0.015625)"/>
       <path id="DejaVuSans-7a" d="M 353 3500 
L 3084 3500 
L 3084 2975 
L 922 459 
L 3084 459 
L 3084 0 
L 275 0 
L 275 525 
L 2438 3041 
L 353 3041 
L 353 3500 
z
" transform="scale(0.015625)"/>
      </defs>
      <use xlink:href="#DejaVuSans-46"/>
      <use xlink:href="#DejaVuSans-61" x="48.394531"/>
      <use xlink:href="#DejaVuSans-6c" x="109.673828"/>
      <use xlink:href="#DejaVuSans-73" x="137.457031"/>
      <use xlink:href="#DejaVuSans-65" x="189.556641"/>
      <use xlink:href="#DejaVuSans-20" x="251.080078"/>
      <use xlink:href="#DejaVuSans-6c" x="282.867188"/>
      <use xlink:href="#DejaVuSans-6f" x="310.650391"/>
      <use xlink:href="#DejaVuSans-63" x="371.832031"/>
      <use xlink:href="#DejaVuSans-61" x="426.8125"/>
      <use xlink:href="#DejaVuSans-6c" x="488.091797"/>
      <use xlink:href="#DejaVuSans-69" x="515.875"/>
      <use xlink:href="#DejaVuSans-7a" x="543.658203"/>
      <use xlink:href="#DejaVuSans-61" x="596.148438"/>
      <use xlink:href="#DejaVuSans-74" x="657.427734"/>
      <use xlink:href="#DejaVuSans-69" x="696.636719"/>
      <use xlink:href="#DejaVuSans-6f" x="724.419922"/>
      <use xlink:href="#DejaVuSans-6e" x="785.601562"/>
      <use xlink:href="#DejaVuSans-20" x="848.980469"/>
      <use xlink:href="#DejaVuSans-72" x="880.767578"/>
      <use xlink:href="#DejaVuSans-61" x="921.880859"/>
      <use xlink:href="#DejaVuSans-74" x="983.160156"/>
      <use xlink:href="#DejaVuSans-65" x="1022.369141"/>
     </g>
    </g>
   </g>
   <g id="line2d_12">
    <path d="M 98.640568 266.645455 
L 158.054943 266.645455 
L 158.279997 248.306743 
L 159.405269 248.306743 
L 159.630324 230.36961 
L 160.080433 230.36961 
L 160.305487 226.130856 
L 181.235551 226.130856 
L 181.460605 223.894566 
L 203.065832 223.894566 
L 203.290887 214.331868 
L 205.316377 214.331868 
L 205.766486 194.018032 
L 206.216595 194.018032 
L 206.441649 188.312501 
L 226.921604 188.312501 
L 227.146658 180.811418 
L 228.72204 180.811418 
L 228.947094 175.684226 
L 233.673237 175.684226 
L 233.898292 168.395885 
L 235.023564 168.395885 
L 235.473673 154.061198 
L 237.499163 154.061198 
L 237.724217 146.408582 
L 237.949272 146.408582 
L 238.399381 131.250515 
L 238.84949 131.250515 
L 239.074544 126.651349 
L 242.225306 126.651349 
L 242.450361 120.021194 
L 243.350579 120.021194 
L 243.800688 106.329624 
L 244.92596 106.329624 
L 245.151014 106.094212 
L 251.677593 106.094212 
L 251.902648 101.464549 
L 254.153192 101.464549 
L 254.378247 95.27336 
L 255.05341 95.27336 
L 255.278464 90.603821 
L 263.605479 90.603821 
L 263.830533 84.329762 
L 264.055588 84.329762 
L 264.280642 78.089708 
L 264.505697 78.089708 
L 264.730751 76.005334 
L 268.556677 76.005334 
L 268.781731 70.469504 
L 269.456895 70.469504 
L 269.681949 64.991642 
L 270.357113 64.991642 
L 270.582167 61.897522 
L 278.684127 61.897522 
L 278.909182 58.806728 
L 281.38478 58.806728 
L 281.609835 53.480411 
L 282.059944 53.480411 
L 282.284998 50.306317 
L 284.535543 50.306317 
L 284.760597 46.427182 
L 286.335978 46.427182 
L 286.561033 41.015768 
L 286.786087 41.015768 
L 287.011142 37.886387 
L 293.98783 37.886387 
L 294.212884 32.705822 
L 294.437939 32.705822 
L 294.662993 30.790979 
L 297.588701 30.790979 
L 297.813755 27.873386 
L 299.839245 27.873386 
L 300.0643 22.593231 
L 300.0643 22.593231 
" clip-path="url(#p3b4c4c34de)" style="fill: none; stroke: #461554; stroke-opacity: 0.6; stroke-width: 4; stroke-linecap: square"/>
   </g>
   <g id="line2d_13">
    <path d="M 98.640568 266.645455 
L 176.059299 266.645455 
L 176.284353 254.524014 
L 190.687838 254.524014 
L 190.912892 245.72002 
L 205.316377 245.72002 
L 205.541431 235.840967 
L 207.341867 235.840967 
L 207.566921 229.99508 
L 251.00243 229.99508 
L 251.227484 227.666704 
L 270.582167 227.666704 
L 270.807221 221.347883 
L 271.25733 221.347883 
L 271.482385 218.336432 
L 283.635325 218.336432 
L 284.085434 207.621812 
L 287.91136 207.621812 
L 288.136414 202.254762 
L 289.486741 202.254762 
L 289.711795 199.936854 
L 299.614191 199.936854 
L 299.839245 194.939262 
L 301.189572 194.939262 
L 301.414626 191.264013 
L 306.14077 191.264013 
L 306.365824 186.659552 
L 308.16626 186.659552 
L 308.391314 181.509853 
L 308.616369 181.509853 
L 308.841423 176.57462 
L 309.516587 176.57462 
L 309.741641 174.23199 
L 316.26822 174.23199 
L 316.493274 170.292369 
L 318.968873 170.292369 
L 319.418982 161.54414 
L 321.894581 161.54414 
L 322.119636 156.981065 
L 322.794799 156.981065 
L 323.019853 152.225848 
L 323.244908 152.225848 
L 323.469962 148.081858 
L 324.820289 148.081858 
L 325.045344 143.508915 
L 325.495452 143.508915 
L 325.945561 134.313749 
L 326.620725 134.313749 
L 326.845779 130.085945 
L 327.745997 130.085945 
L 328.196106 120.761186 
L 328.42116 120.761186 
L 328.646215 116.339588 
L 329.096324 116.339588 
L 329.321378 111.793163 
L 329.546433 111.793163 
L 329.996541 102.753228 
L 330.44665 102.753228 
L 331.121814 89.152928 
L 331.571923 89.152928 
L 332.022031 80.09893 
L 332.247086 80.09893 
L 332.922249 66.519653 
L 333.147304 66.519653 
L 333.372358 62.146888 
L 333.597413 62.146888 
L 333.822467 57.990118 
L 334.272576 57.990118 
L 334.49763 53.654423 
L 334.722685 53.654423 
L 334.947739 49.541586 
L 335.397848 49.541586 
L 335.622903 45.242455 
L 335.847957 45.242455 
L 336.073012 40.959593 
L 336.298066 40.959593 
L 336.748175 32.882955 
L 337.648393 32.882955 
L 338.323556 19.554545 
L 338.323556 19.554545 
" clip-path="url(#p3b4c4c34de)" style="fill: none; stroke: #30708d; stroke-opacity: 0.6; stroke-width: 4; stroke-linecap: square"/>
   </g>
   <g id="line2d_14">
    <path d="M 98.640568 266.645455 
L 116.644924 266.645455 
L 116.869979 253.10379 
L 263.605479 253.10379 
L 263.830533 248.682355 
L 285.210706 248.682355 
L 285.435761 243.926411 
L 295.338156 243.926411 
L 295.563211 238.599231 
L 297.813755 238.599231 
L 298.03881 233.513516 
L 300.964518 233.513516 
L 301.189572 228.247513 
L 302.314844 228.247513 
L 302.539899 223.382858 
L 305.240552 223.382858 
L 305.465606 220.628874 
L 317.168438 220.628874 
L 317.618547 210.576021 
L 317.843601 210.576021 
L 318.068656 206.344657 
L 320.994363 206.344657 
L 321.219418 202.038175 
L 323.469962 202.038175 
L 323.920071 192.395593 
L 324.37018 192.395593 
L 324.820289 183.243241 
L 326.39567 183.243241 
L 326.845779 173.79784 
L 327.295888 173.79784 
L 327.520942 169.198577 
L 327.971051 169.198577 
L 328.196106 164.526467 
L 328.42116 164.526467 
L 328.871269 155.777184 
L 330.44665 155.777184 
L 330.671705 151.18081 
L 330.896759 151.18081 
L 331.121814 147.408633 
L 332.922249 147.408633 
L 333.372358 138.72901 
L 334.49763 138.72901 
L 334.722685 135.738455 
L 337.648393 135.738455 
L 337.873447 131.571479 
L 338.54861 131.571479 
L 339.448828 113.800073 
L 339.898937 113.800073 
L 340.5741 100.524316 
L 340.799155 100.524316 
L 341.024209 96.541609 
L 341.699373 96.541609 
L 341.924427 92.266832 
L 342.149482 92.266832 
L 342.374536 88.336495 
L 343.049699 88.336495 
L 343.274754 84.601838 
L 344.174972 84.601838 
L 345.300244 63.335833 
L 345.975407 63.335833 
L 346.425516 56.212874 
L 348.225952 56.212874 
L 348.451006 52.314857 
L 348.901115 52.314857 
L 349.12617 48.437797 
L 349.576278 48.437797 
L 349.801333 44.382899 
L 350.026387 44.382899 
L 350.476496 36.111005 
L 350.701551 36.111005 
L 351.601768 19.918255 
L 352.276932 19.918255 
L 352.276932 19.918255 
" clip-path="url(#p3b4c4c34de)" style="fill: none; stroke: #56c566; stroke-opacity: 0.6; stroke-width: 4; stroke-linecap: square"/>
   </g>
   <g id="patch_3">
    <path d="M 85.95875 279 
L 85.95875 7.2 
" style="fill: none; stroke: #000000; stroke-width: 0.8; stroke-linejoin: miter; stroke-linecap: square"/>
   </g>
   <g id="patch_4">
    <path d="M 85.95875 279 
L 364.95875 279 
" style="fill: none; stroke: #000000; stroke-width: 0.8; stroke-linejoin: miter; stroke-linecap: square"/>
   </g>
   <g id="legend_1">
    <g id="line2d_15">
     <path d="M 386.55875 38.63625 
L 410.55875 38.63625 
L 434.55875 38.63625 
" style="fill: none; stroke: #461554; stroke-opacity: 0.6; stroke-width: 4; stroke-linecap: square"/>
    </g>
    <g id="text_14">
     <!-- pyAscore (wide) -->
     <g transform="translate(453.75875 47.03625)scale(0.24 -0.24)">
      <defs>
       <path id="DejaVuSans-79" d="M 2059 -325 
Q 1816 -950 1584 -1140 
Q 1353 -1331 966 -1331 
L 506 -1331 
L 506 -850 
L 844 -850 
Q 1081 -850 1212 -737 
Q 1344 -625 1503 -206 
L 1606 56 
L 191 3500 
L 800 3500 
L 1894 763 
L 2988 3500 
L 3597 3500 
L 2059 -325 
z
" transform="scale(0.015625)"/>
       <path id="DejaVuSans-41" d="M 2188 4044 
L 1331 1722 
L 3047 1722 
L 2188 4044 
z
M 1831 4666 
L 2547 4666 
L 4325 0 
L 3669 0 
L 3244 1197 
L 1141 1197 
L 716 0 
L 50 0 
L 1831 4666 
z
" transform="scale(0.015625)"/>
       <path id="DejaVuSans-28" d="M 1984 4856 
Q 1566 4138 1362 3434 
Q 1159 2731 1159 2009 
Q 1159 1288 1364 580 
Q 1569 -128 1984 -844 
L 1484 -844 
Q 1016 -109 783 600 
Q 550 1309 550 2009 
Q 550 2706 781 3412 
Q 1013 4119 1484 4856 
L 1984 4856 
z
" transform="scale(0.015625)"/>
       <path id="DejaVuSans-77" d="M 269 3500 
L 844 3500 
L 1563 769 
L 2278 3500 
L 2956 3500 
L 3675 769 
L 4391 3500 
L 4966 3500 
L 4050 0 
L 3372 0 
L 2619 2869 
L 1863 0 
L 1184 0 
L 269 3500 
z
" transform="scale(0.015625)"/>
       <path id="DejaVuSans-29" d="M 513 4856 
L 1013 4856 
Q 1481 4119 1714 3412 
Q 1947 2706 1947 2009 
Q 1947 1309 1714 600 
Q 1481 -109 1013 -844 
L 513 -844 
Q 928 -128 1133 580 
Q 1338 1288 1338 2009 
Q 1338 2731 1133 3434 
Q 928 4138 513 4856 
z
" transform="scale(0.015625)"/>
      </defs>
      <use xlink:href="#DejaVuSans-70"/>
      <use xlink:href="#DejaVuSans-79" x="63.476562"/>
      <use xlink:href="#DejaVuSans-41" x="122.65625"/>
      <use xlink:href="#DejaVuSans-73" x="191.064453"/>
      <use xlink:href="#DejaVuSans-63" x="243.164062"/>
      <use xlink:href="#DejaVuSans-6f" x="298.144531"/>
      <use xlink:href="#DejaVuSans-72" x="359.326172"/>
      <use xlink:href="#DejaVuSans-65" x="398.189453"/>
      <use xlink:href="#DejaVuSans-20" x="459.712891"/>
      <use xlink:href="#DejaVuSans-28" x="491.5"/>
      <use xlink:href="#DejaVuSans-77" x="530.513672"/>
      <use xlink:href="#DejaVuSans-69" x="612.300781"/>
      <use xlink:href="#DejaVuSans-64" x="640.083984"/>
      <use xlink:href="#DejaVuSans-65" x="703.560547"/>
      <use xlink:href="#DejaVuSans-29" x="765.083984"/>
     </g>
    </g>
    <g id="line2d_16">
     <path d="M 386.55875 73.86375 
L 410.55875 73.86375 
L 434.55875 73.86375 
" style="fill: none; stroke: #30708d; stroke-opacity: 0.6; stroke-width: 4; stroke-linecap: square"/>
    </g>
    <g id="text_15">
     <!-- pyAscore (narrow) -->
     <g transform="translate(453.75875 82.26375)scale(0.24 -0.24)">
      <use xlink:href="#DejaVuSans-70"/>
      <use xlink:href="#DejaVuSans-79" x="63.476562"/>
      <use xlink:href="#DejaVuSans-41" x="122.65625"/>
      <use xlink:href="#DejaVuSans-73" x="191.064453"/>
      <use xlink:href="#DejaVuSans-63" x="243.164062"/>
      <use xlink:href="#DejaVuSans-6f" x="298.144531"/>
      <use xlink:href="#DejaVuSans-72" x="359.326172"/>
      <use xlink:href="#DejaVuSans-65" x="398.189453"/>
      <use xlink:href="#DejaVuSans-20" x="459.712891"/>
      <use xlink:href="#DejaVuSans-28" x="491.5"/>
      <use xlink:href="#DejaVuSans-6e" x="530.513672"/>
      <use xlink:href="#DejaVuSans-61" x="593.892578"/>
      <use xlink:href="#DejaVuSans-72" x="655.171875"/>
      <use xlink:href="#DejaVuSans-72" x="694.535156"/>
      <use xlink:href="#DejaVuSans-6f" x="733.398438"/>
      <use xlink:href="#DejaVuSans-77" x="794.580078"/>
      <use xlink:href="#DejaVuSans-29" x="876.367188"/>
     </g>
    </g>
    <g id="line2d_17">
     <path d="M 386.55875 109.09125 
L 410.55875 109.09125 
L 434.55875 109.09125 
" style="fill: none; stroke: #56c566; stroke-opacity: 0.6; stroke-width: 4; stroke-linecap: square"/>
    </g>
    <g id="text_16">
     <!-- PTMProphet -->
     <g transform="translate(453.75875 117.49125)scale(0.24 -0.24)">
      <defs>
       <path id="DejaVuSans-54" d="M -19 4666 
L 3928 4666 
L 3928 4134 
L 2272 4134 
L 2272 0 
L 1638 0 
L 1638 4134 
L -19 4134 
L -19 4666 
z
" transform="scale(0.015625)"/>
       <path id="DejaVuSans-68" d="M 3513 2113 
L 3513 0 
L 2938 0 
L 2938 2094 
Q 2938 2591 2744 2837 
Q 2550 3084 2163 3084 
Q 1697 3084 1428 2787 
Q 1159 2491 1159 1978 
L 1159 0 
L 581 0 
L 581 4863 
L 1159 4863 
L 1159 2956 
Q 1366 3272 1645 3428 
Q 1925 3584 2291 3584 
Q 2894 3584 3203 3211 
Q 3513 2838 3513 2113 
z
" transform="scale(0.015625)"/>
      </defs>
      <use xlink:href="#DejaVuSans-50"/>
      <use xlink:href="#DejaVuSans-54" x="60.302734"/>
      <use xlink:href="#DejaVuSans-4d" x="121.386719"/>
      <use xlink:href="#DejaVuSans-50" x="207.666016"/>
      <use xlink:href="#DejaVuSans-72" x="266.21875"/>
      <use xlink:href="#DejaVuSans-6f" x="305.082031"/>
      <use xlink:href="#DejaVuSans-70" x="366.263672"/>
      <use xlink:href="#DejaVuSans-68" x="429.740234"/>
      <use xlink:href="#DejaVuSans-65" x="493.119141"/>
      <use xlink:href="#DejaVuSans-74" x="554.642578"/>
     </g>
    </g>
   </g>
  </g>
 </g>
 <defs>
  <clipPath id="p3b4c4c34de">
   <rect x="85.95875" y="7.2" width="279" height="271.8"/>
  </clipPath>
 </defs>
</svg>
